<svg width="29" height="30" viewBox="0 0 29 30" fill="none" xmlns="http://www.w3.org/2000/svg">
<path d="M0 10C0 4.47715 4.47715 0 10 0H29V30H0V10Z" fill="#F3BA00"/>
<path d="M9.29883 18.1094V19H3.71484V18.2207L6.50977 15.1094C6.85352 14.7266 7.11914 14.4023 7.30664 14.1367C7.49805 13.8672 7.63086 13.627 7.70508 13.416C7.7832 13.2012 7.82227 12.9824 7.82227 12.7598C7.82227 12.4785 7.76367 12.2246 7.64648 11.998C7.5332 11.7676 7.36523 11.584 7.14258 11.4473C6.91992 11.3105 6.65039 11.2422 6.33398 11.2422C5.95508 11.2422 5.63867 11.3164 5.38477 11.4648C5.13477 11.6094 4.94727 11.8125 4.82227 12.0742C4.69727 12.3359 4.63477 12.6367 4.63477 12.9766H3.55078C3.55078 12.4961 3.65625 12.0566 3.86719 11.6582C4.07812 11.2598 4.39062 10.9434 4.80469 10.709C5.21875 10.4707 5.72852 10.3516 6.33398 10.3516C6.87305 10.3516 7.33398 10.4473 7.7168 10.6387C8.09961 10.8262 8.39258 11.0918 8.5957 11.4355C8.80273 11.7754 8.90625 12.1738 8.90625 12.6309C8.90625 12.8809 8.86328 13.1348 8.77734 13.3926C8.69531 13.6465 8.58008 13.9004 8.43164 14.1543C8.28711 14.4082 8.11719 14.6582 7.92188 14.9043C7.73047 15.1504 7.52539 15.3926 7.30664 15.6309L5.02148 18.1094H9.29883ZM15.6705 14.0547V15.3555C15.6705 16.0547 15.608 16.6445 15.483 17.125C15.358 17.6055 15.1783 17.9922 14.9439 18.2852C14.7095 18.5781 14.4263 18.791 14.0943 18.9238C13.7662 19.0527 13.3951 19.1172 12.981 19.1172C12.6529 19.1172 12.3501 19.0762 12.0728 18.9941C11.7955 18.9121 11.5455 18.7812 11.3228 18.6016C11.104 18.418 10.9165 18.1797 10.7603 17.8867C10.604 17.5938 10.4849 17.2383 10.4029 16.8203C10.3208 16.4023 10.2798 15.9141 10.2798 15.3555V14.0547C10.2798 13.3555 10.3423 12.7695 10.4673 12.2969C10.5962 11.8242 10.7779 11.4453 11.0122 11.1602C11.2466 10.8711 11.5279 10.6641 11.856 10.5391C12.188 10.4141 12.5591 10.3516 12.9693 10.3516C13.3013 10.3516 13.606 10.3926 13.8833 10.4746C14.1646 10.5527 14.4146 10.6797 14.6333 10.8555C14.8521 11.0273 15.0376 11.2578 15.19 11.5469C15.3462 11.832 15.4654 12.1816 15.5474 12.5957C15.6294 13.0098 15.6705 13.4961 15.6705 14.0547ZM14.5806 15.5312V13.873C14.5806 13.4902 14.5572 13.1543 14.5103 12.8652C14.4673 12.5723 14.4029 12.3223 14.3169 12.1152C14.231 11.9082 14.1216 11.7402 13.9888 11.6113C13.8599 11.4824 13.7095 11.3887 13.5376 11.3301C13.3697 11.2676 13.1802 11.2363 12.9693 11.2363C12.7115 11.2363 12.483 11.2852 12.2837 11.3828C12.0845 11.4766 11.9165 11.627 11.7798 11.834C11.647 12.041 11.5455 12.3125 11.4751 12.6484C11.4048 12.9844 11.3697 13.3926 11.3697 13.873V15.5312C11.3697 15.9141 11.3912 16.252 11.4341 16.5449C11.481 16.8379 11.5494 17.0918 11.6392 17.3066C11.729 17.5176 11.8384 17.6914 11.9673 17.8281C12.0962 17.9648 12.2447 18.0664 12.4126 18.1328C12.5845 18.1953 12.774 18.2266 12.981 18.2266C13.2466 18.2266 13.479 18.1758 13.6783 18.0742C13.8775 17.9727 14.0435 17.8145 14.1763 17.5996C14.313 17.3809 14.4146 17.1016 14.481 16.7617C14.5474 16.418 14.5806 16.0078 14.5806 15.5312ZM16.8272 12.5605V12.1094C16.8272 11.7852 16.8975 11.4902 17.0382 11.2246C17.1788 10.959 17.38 10.7461 17.6417 10.5859C17.9034 10.4258 18.214 10.3457 18.5733 10.3457C18.9405 10.3457 19.253 10.4258 19.5108 10.5859C19.7725 10.7461 19.9737 10.959 20.1143 11.2246C20.255 11.4902 20.3253 11.7852 20.3253 12.1094V12.5605C20.3253 12.877 20.255 13.168 20.1143 13.4336C19.9776 13.6992 19.7784 13.9121 19.5167 14.0723C19.2589 14.2324 18.9483 14.3125 18.585 14.3125C18.2218 14.3125 17.9073 14.2324 17.6417 14.0723C17.38 13.9121 17.1788 13.6992 17.0382 13.4336C16.8975 13.168 16.8272 12.877 16.8272 12.5605ZM17.6417 12.1094V12.5605C17.6417 12.7402 17.6749 12.9102 17.7413 13.0703C17.8116 13.2305 17.9171 13.3613 18.0577 13.4629C18.1983 13.5605 18.3741 13.6094 18.585 13.6094C18.796 13.6094 18.9698 13.5605 19.1065 13.4629C19.2432 13.3613 19.3448 13.2305 19.4112 13.0703C19.4776 12.9102 19.5108 12.7402 19.5108 12.5605V12.1094C19.5108 11.9258 19.4757 11.7539 19.4054 11.5938C19.339 11.4297 19.2354 11.2988 19.0948 11.2012C18.9581 11.0996 18.7843 11.0488 18.5733 11.0488C18.3663 11.0488 18.1925 11.0996 18.0518 11.2012C17.9151 11.2988 17.8116 11.4297 17.7413 11.5938C17.6749 11.7539 17.6417 11.9258 17.6417 12.1094ZM20.9815 17.3652V16.9082C20.9815 16.5879 21.0518 16.2949 21.1925 16.0293C21.3331 15.7637 21.5343 15.5508 21.796 15.3906C22.0577 15.2305 22.3682 15.1504 22.7276 15.1504C23.0948 15.1504 23.4073 15.2305 23.6651 15.3906C23.9268 15.5508 24.128 15.7637 24.2686 16.0293C24.4093 16.2949 24.4796 16.5879 24.4796 16.9082V17.3652C24.4796 17.6855 24.4093 17.9785 24.2686 18.2441C24.1319 18.5098 23.9327 18.7227 23.671 18.8828C23.4132 19.043 23.1026 19.123 22.7393 19.123C22.3761 19.123 22.0636 19.043 21.8018 18.8828C21.5401 18.7227 21.337 18.5098 21.1925 18.2441C21.0518 17.9785 20.9815 17.6855 20.9815 17.3652ZM21.796 16.9082V17.3652C21.796 17.5449 21.8292 17.7168 21.8956 17.8809C21.9659 18.041 22.0714 18.1719 22.212 18.2734C22.3526 18.3711 22.5284 18.4199 22.7393 18.4199C22.9503 18.4199 23.1241 18.3711 23.2608 18.2734C23.4015 18.1719 23.505 18.041 23.5714 17.8809C23.6378 17.7207 23.671 17.5488 23.671 17.3652V16.9082C23.671 16.7246 23.6358 16.5527 23.5655 16.3926C23.4991 16.2324 23.3956 16.1035 23.255 16.0059C23.1182 15.9043 22.9425 15.8535 22.7276 15.8535C22.5206 15.8535 22.3468 15.9043 22.2061 16.0059C22.0694 16.1035 21.9659 16.2324 21.8956 16.3926C21.8292 16.5527 21.796 16.7246 21.796 16.9082ZM22.9972 11.6816L18.8311 18.3496L18.2218 17.9629L22.3878 11.2949L22.9972 11.6816Z" fill="#101115"/>
</svg>
